<svg width="1444" height="1448" xmlns="http://www.w3.org/2000/svg" xml:space="preserve" overflow="hidden"><g transform="translate(-2007 -261)"><g><path d="M3266.53 502.364C3243.88 563.11 3188.6 649.99 3145.97 705.161 3103.34 760.333 3055.95 806.792 3010.77 833.391 2965.59 859.989 2922.5 872.417 2874.88 864.751 2894.16 798.546 2955.02 703.535 3001.02 645.228 3047.01 586.921 3115.31 532.795 3168.27 510.03 3221.24 487.265 3250.16 498.764 3266.53 502.364Z" fill="#CFEDE3" fill-rule="evenodd" fill-opacity="1"/><path d="M3449 1028.9C3390.05 1055.85 3289.56 1078.2 3220.43 1087.07 3151.3 1095.95 3084.96 1095.29 3034.23 1082.14 2983.49 1069 2944.24 1047.31 2916 1008.2 2976.43 975.002 3086.61 950.846 3160.33 942.137 3234.06 933.427 3320.59 943.451 3374.12 964.814 3427.65 986.177 3439.97 1014.77 3449 1028.9Z" fill="#BFD6EF" fill-rule="evenodd" fill-opacity="1"/><path d="M3214.02 1525.45C3153.27 1502.8 3066.39 1447.52 3011.22 1404.89 2956.05 1362.26 2909.59 1314.87 2882.99 1269.69 2856.39 1224.51 2843.97 1181.42 2851.63 1133.8 2917.84 1153.08 3012.85 1213.94 3071.16 1259.94 3129.46 1305.93 3183.59 1374.23 3206.35 1427.19 3229.12 1480.15 3217.62 1509.08 3214.02 1525.45Z" fill="#9FBFE6" fill-rule="evenodd" fill-opacity="1"/><path d="M2693.1 1708C2666.15 1649.05 2643.8 1548.56 2634.93 1479.43 2626.05 1410.3 2626.71 1343.96 2639.86 1293.23 2653 1242.49 2674.69 1203.24 2713.8 1175 2747 1235.43 2771.15 1345.61 2779.86 1419.33 2788.57 1493.06 2778.55 1579.59 2757.19 1633.12 2735.82 1686.65 2707.23 1698.97 2693.1 1708Z" fill="#C8B7F0" fill-rule="evenodd" fill-opacity="1"/><path d="M2768.9 263C2795.85 322.059 2818.2 422.739 2827.07 491.998 2835.95 561.257 2835.29 627.719 2822.14 678.553 2809 729.386 2787.31 768.704 2748.2 797 2715 736.461 2690.85 626.074 2682.14 552.209 2673.43 478.344 2683.45 391.647 2704.81 338.017 2726.18 284.386 2754.77 272.048 2768.9 263Z" fill="#DDEAD2" fill-rule="evenodd" fill-opacity="1"/><path d="M2191.69 1464.74C2214.34 1403.99 2269.63 1317.11 2312.25 1261.94 2354.88 1206.77 2402.27 1160.31 2447.45 1133.71 2492.64 1107.11 2535.73 1094.68 2583.35 1102.35 2564.07 1168.55 2503.2 1263.56 2457.21 1321.87 2411.21 1380.18 2342.92 1434.3 2289.95 1457.07 2236.99 1479.83 2208.07 1468.34 2191.69 1464.74Z" fill="#D9B6C9" fill-rule="evenodd" fill-opacity="1"/><path d="M2236.67 448.192C2297.42 470.842 2384.3 526.129 2439.47 568.756 2494.64 611.383 2541.1 658.772 2567.7 703.954 2594.3 749.136 2606.73 792.228 2599.06 839.849 2532.86 820.568 2437.85 759.706 2379.54 713.711 2321.23 667.715 2267.11 599.419 2244.34 546.455 2221.57 493.491 2233.07 464.57 2236.67 448.192Z" fill="#EDE2C8" fill-rule="evenodd" fill-opacity="1"/><path d="M2008 949.099C2066.95 922.149 2167.44 899.8 2236.57 890.927 2305.7 882.053 2372.04 882.71 2422.77 895.856 2473.51 909.003 2512.76 930.694 2541 969.804 2480.57 1003 2370.39 1027.15 2296.67 1035.86 2222.94 1044.57 2136.41 1034.55 2082.88 1013.19 2029.35 991.824 2017.03 963.231 2008 949.099Z" fill="#F2CBC2" fill-rule="evenodd" fill-opacity="1"/></g></g></svg>